<?xml version="1.0" encoding="UTF-8" standalone="no"?>
<svg width="279px" height="252px" viewBox="0 0 279 252" version="1.1" xmlns="http://www.w3.org/2000/svg" xmlns:xlink="http://www.w3.org/1999/xlink">
    <title>hexo - FOSSA Packages Report</title>
    <desc>FOSSA packages report plugin for hexo. View more at https://fossa.com.</desc>
    <defs>
        <style>
            @font-face {
                font-family: 'Open Sauce Two';
                src:
                  url('https://s3-us-west-1.amazonaws.com/fossa-site/fonts/OpenSauceTwo-Regular.woff2') format('woff2'),
                  url('https://s3-us-west-1.amazonaws.com/fossa-site/fonts/OpenSauceTwo-Regular.woff') format('woff'),
                  url('https://s3-us-west-1.amazonaws.com/fossa-site/fonts/OpenSauceTwo-Regular.ttf') format('truetype'),
                  url('https://s3-us-west-1.amazonaws.com/fossa-site/fonts/OpenSauceTwo-Regular.svg#OpenSauceTwo-Regular') format('svg');
                font-weight: normal;
                font-style: normal;
                font-display: swap;
            }

            @font-face {
                font-family: 'Open Sauce Two';
                src:
                    url('https://s3-us-west-1.amazonaws.com/fossa-site/fonts/OpenSauceTwo-SemiBold.woff2') format('woff2'),
                    url('https://s3-us-west-1.amazonaws.com/fossa-site/fonts/OpenSauceTwo-SemiBold.woff') format('woff'),
                    url('https://s3-us-west-1.amazonaws.com/fossa-site/fonts/OpenSauceTwo-SemiBold.ttf') format('truetype'),
                    url('https://s3-us-west-1.amazonaws.com/fossa-site/fonts/OpenSauceTwo-SemiBold.svg#OpenSauceTwo-SemiBold') format('svg');
                font-weight: 600;
                font-style: normal;
                font-display: swap;
            }

            @font-face {
                font-family: 'Open Sauce Two';
                src:
                    url('https://s3-us-west-1.amazonaws.com/fossa-site/fonts/OpenSauceTwo-Bold.woff2') format('woff2'),
                    url('https://s3-us-west-1.amazonaws.com/fossa-site/fonts/OpenSauceTwo-Bold.woff') format('woff'),
                    url('https://s3-us-west-1.amazonaws.com/fossa-site/fonts/OpenSauceTwo-Bold.ttf') format('truetype'),
                    url('https://s3-us-west-1.amazonaws.com/fossa-site/fonts/OpenSauceTwo-Bold.svg#OpenSauceTwo-Bold') format('svg');
                font-weight: 700;
                font-style: normal;
                font-display: swap;
            }
        </style>
        <rect id="path-1" x="0" y="0" width="275" height="248" rx="3"></rect>
        <filter x="-50%" y="-50%" width="200%" height="200%" filterUnits="objectBoundingBox" id="filter-3">
            <feOffset dx="0" dy="1" in="SourceAlpha" result="shadowOffsetOuter1"></feOffset>
            <feGaussianBlur stdDeviation="1" in="shadowOffsetOuter1" result="shadowBlurOuter1"></feGaussianBlur>
            <feComposite in="shadowBlurOuter1" in2="SourceAlpha" operator="out" result="shadowBlurOuter1"></feComposite>
            <feColorMatrix values="0 0 0 0 0.333333333   0 0 0 0 0.407843137   0 0 0 0 0.509803922  0 0 0 0.15 0" type="matrix" in="shadowBlurOuter1"></feColorMatrix>
        </filter>
        <mask id="mask-4" maskContentUnits="userSpaceOnUse" maskUnits="objectBoundingBox" x="0" y="0" width="275" height="357" fill="white">
            <use xlink:href="#path-1"></use>
        </mask>
    </defs>
    <g id="Landing" stroke="none" stroke-width="1" fill="none" fill-rule="evenodd">
        <g id="Artboard-11" transform="translate(-15.000000, -11.000000)">
            <g id="Licenses-+-Group-3-+-Group-+-Group-2-+-Group-3-+-Group-5-+-Rectangle-143-+-View-More-Details-on-Mask" transform="translate(17.000000, 12.000000)">
                <mask id="mask-2" fill="white">
                    <use xlink:href="#path-1"></use>
                </mask>
                <g id="Mask">
                    <use fill="black" fill-opacity="1" filter="url(#filter-3)" xlink:href="#path-1"></use>
                    <use stroke-opacity="0.1" stroke="#64768D" mask="url(#mask-4)" stroke-width="2" fill="#FFFFFF" fill-rule="evenodd" xlink:href="#path-1"></use>
                </g>
                <text id="Licenses" mask="url(#mask-2)" font-family="'Open Sauce Two', 'Open Sauce', 'Helvetica Neue', Helvetica, Arial, sans-serif" font-size="13" font-weight="normal" line-spacing="21" fill="#64768D">
                    <tspan x="15" y="26">hexo ea4f63cd2a</tspan>
                </text>
                <g id="Group-3" mask="url(#mask-2)">
                    <g transform="translate(210.000000, 15.000000)">
                        <svg id="FOSSA" width="55" height="12" fill="#3E485B" viewBox="0 0 73 16"><path d="M20.66 0a8.13 8.13 0 013 .53c.81.3 1.56.76 2.19 1.35a8.46 8.46 0 012.14 4.03 10.08 10.08 0 010 4.2 8.42 8.42 0 01-2.14 4.03 6.28 6.28 0 01-2.18 1.34 8.3 8.3 0 01-3.01.52 8.36 8.36 0 01-3.04-.52 6.28 6.28 0 01-3.57-3.24 8.2 8.2 0 01-.8-2.14 10.34 10.34 0 010-4.19 8.22 8.22 0 012.2-4.03A6.42 6.42 0 0117.63.53c.97-.37 2-.54 3.03-.53zm0 13.1c.66.01 1.32-.13 1.92-.42.5-.23.94-.58 1.29-1 .31-.42.57-.87.75-1.36a7.03 7.03 0 00.46-2.34 6.59 6.59 0 00-.46-2.32 5.25 5.25 0 00-.74-1.33c-.35-.44-.8-.78-1.3-1-.6-.27-1.26-.4-1.92-.39a4.52 4.52 0 00-1.97.41c-.5.22-.95.55-1.3.98-.31.4-.56.86-.74 1.34A5.9 5.9 0 0016.28 9a6.05 6.05 0 001.11 2.66c.35.43.8.78 1.3 1a4.4 4.4 0 001.97.42v.01zM8.44 9.56H3.1v5.83c0 .1-.04.2-.11.27a.37.37 0 01-.27.11H.37c-.1 0-.19-.04-.26-.11a.38.38 0 01-.11-.27V.64c0-.1.04-.2.11-.26C.18.3.28.27.37.27h9.67c.1 0 .2.04.27.11s.1.17.1.27v2.12c0 .1-.03.2-.1.27a.37.37 0 01-.27.11H3.1V6.7h5.35c.1 0 .2.04.27.11s.1.17.1.27V9.2c0 .1-.04.19-.1.26a.37.37 0 01-.27.1zm26-4.51c-.13-.2-.2-.43-.2-.67.04-.96.73-1.44 2.07-1.44 1.35.09 2.67.42 3.9 1a.37.37 0 00.5-.22l.8-1.93a.34.34 0 00-.16-.5A12.96 12.96 0 0036.08.01a5.22 5.22 0 00-3.59 1.22 4.15 4.15 0 00-1.37 3.3c0 1.63.76 2.86 2.28 3.69 1.02.48 2.07.87 3.15 1.17.69.18 1.34.48 1.92.88a1.23 1.23 0 01.53 1.28 1.52 1.52 0 01-.77 1.06c-.52.29-1.1.43-1.69.4a9.84 9.84 0 01-4.1-1.1.35.35 0 00-.28 0 .37.37 0 00-.21.2l-1 1.92a.4.4 0 000 .3.34.34 0 00.16.21c1.74.91 3.66 1.39 5.6 1.38 1.42.06 2.81-.39 3.93-1.26a4.24 4.24 0 001.67-3.18 3.98 3.98 0 00-.55-2.33c-.19-.32-.44-.6-.73-.83a6.28 6.28 0 00-1.9-1.17c-.47-.2-.8-.34-1.01-.4l-1.07-.39a8.83 8.83 0 01-1.93-.78c-.27-.12-.5-.31-.68-.54zm13.84-.67c.01.24.09.47.22.67.18.23.42.42.68.54a8.83 8.83 0 001.93.78l1.07.38c.2.07.55.21 1.02.41a6.24 6.24 0 011.9 1.17c.29.23.54.51.73.83.17.33.3.67.39 1.03a4.3 4.3 0 01-1.55 4.48 6.01 6.01 0 01-3.91 1.27c-1.95 0-3.88-.48-5.6-1.39a.33.33 0 01-.18-.22.4.4 0 010-.29l1-1.92a.38.38 0 01.23-.2.35.35 0 01.28 0 9.84 9.84 0 004.1 1.12c.58.02 1.16-.12 1.67-.4a1.5 1.5 0 00.78-1.08 1.25 1.25 0 00-.52-1.28c-.59-.4-1.23-.7-1.91-.88-1.09-.3-2.14-.7-3.16-1.17a3.97 3.97 0 01-2.28-3.7 4.2 4.2 0 011.37-3.29c1-.84 2.29-1.27 3.6-1.22a12.95 12.95 0 015.4 1.34.34.34 0 01.04.43l-.8 1.93a.38.38 0 01-.36.25.37.37 0 01-.15-.03 10.7 10.7 0 00-3.9-1c-1.35 0-2.04.48-2.09 1.44zm24.5 11.02L66.02.27a.56.56 0 00-.5-.2.57.57 0 00-.45.2l-6.7 15.1a.3.3 0 00.02.26.22.22 0 00.2.12h2.78a.5.5 0 00.52-.35l1.3-3.26H68l1.32 3.28a.49.49 0 00.52.35h2.73a.21.21 0 00.2-.12.3.3 0 000-.25zM64.2 9.66l1.37-3.48 1.37 3.48H64.2z" /></svg>
                    </g>
                </g>
                
                    
                        <g id="Group" mask="url(#mask-2)">
                            <g transform="translate(15.000000, 42.000000)">
                                <text id="No-Issues-Found" font-family="'Open Sauce Two', 'Open Sauce', 'Helvetica Neue', Helvetica, Arial, sans-serif" font-size="12" font-weight="500" line-spacing="18">
                                    <tspan x="16" y="12" fill="#289E6D">No Issues Found</tspan>
                                </text>
                                <g id="Group-13-Copy" stroke-width="1" fill-rule="evenodd" transform="translate(0.000000, 2.000000)">
                                    <circle id="Oval-226" fill="#289E6D" cx="5.5" cy="5.5" r="5.5"></circle>
                                    <path d="M8.07606655,3.21825739 C7.9753767,3.11772373 7.81022961,3.11772373 7.70947413,3.21825739 L4.45792743,6.46284221 C4.35717195,6.56337587 4.19209049,6.56337587 4.09133501,6.46284221 L3.29047664,5.66381244 C3.18972116,5.56327877 3.0246397,5.56327877 2.92388423,5.66381244 L2.43270947,6.15416784 C2.33195399,6.2547015 2.33195399,6.41941952 2.43270947,6.51995319 L4.09133501,8.17459975 C4.19209049,8.27513342 4.35717195,8.27513342 4.45792743,8.17459975 L8.5672413,4.07413616 C8.66806242,3.97353701 8.66806242,3.80888448 8.5672413,3.70828532 L8.07606655,3.21825739 L8.07606655,3.21825739 Z" id="Shape-Copy" fill="#FFFFFF"></path>
                                </g>
                            </g>
                        </g>
                    
                    <g id="Group-2" mask="url(#mask-2)">
                        <g transform="translate(15.000000, 75.000000)">
                            <text id="LICENSE-SCAN" fill="none" font-family="'Open Sauce Two', 'Open Sauce', 'Helvetica Neue', Helvetica, Arial, sans-serif" font-size="12" font-weight="bold" line-spacing="18" letter-spacing="0.5" fill-opacity="0.4">
                                <tspan x="0" y="13" fill="#64768D">LICENSE SCAN</tspan>
                            </text>
                            
                                <rect id="Rectangle-scanresults-1" fill="rgb(74,213, 70)" fill-rule="evenodd" x="0" y="28" width="140" height="5" rx="2.5"></rect>
                                <text id="Rectangle-scanresults-label-MIT" fill="none" font-family="'Open Sauce Two', 'Open Sauce', 'Helvetica Neue', Helvetica, Arial, sans-serif" font-size="11" font-weight="500" line-spacing="18">
                                    <tspan x="150" y="34" fill="rgb(74,213, 70)">MIT - 100%</tspan>
                                </text>
                            
                        </g>
                    </g>
                    <g id="Group-3" mask="url(#mask-2)" font-size="12" line-spacing="18">
                        <g transform="translate(15.000000, 129.000000)">
                            <text id="IMPACT-STATS" font-family="'Open Sauce Two', 'Open Sauce', 'Helvetica Neue', Helvetica, Arial, sans-serif" font-weight="bold" letter-spacing="0.5" fill-opacity="0.4">
                                <tspan x="0" y="13" fill="#64768D">DEEP IMPACT STATS</tspan>
                            </text>
                            <g id="impact-stats-deps" stroke-width="1" fill-rule="evenodd" transform="translate(0.000000, 23.000000)">
                                <text id="+10" font-family="'Open Sauce Two', 'Open Sauce', 'Helvetica Neue', Helvetica, Arial, sans-serif" font-weight="500" fill="#64768D">
                                    <tspan x="0" y="13">+ 42</tspan>
                                </text>
                                <text id="Deep-Dependencies" font-family="'Open Sauce Two', 'Open Sauce', 'Helvetica Neue', Helvetica, Arial, sans-serif" font-weight="normal" fill="#64768D">
                                    <tspan x="28" y="13">Deep Dependencies</tspan>
                                </text>
                            </g>
                            <g id="impact-stats-obligations" stroke-width="1" fill-rule="evenodd" transform="translate(0.000000, 51.000000)">
                                <text id="+10" font-family="'Open Sauce Two', 'Open Sauce', 'Helvetica Neue', Helvetica, Arial, sans-serif" font-weight="500" fill="#64768D">
                                    <tspan x="0" y="13">+ 6</tspan>
                                </text>
                                <text id="Deep-Dependencies" font-family="'Open Sauce Two', 'Open Sauce', 'Helvetica Neue', Helvetica, Arial, sans-serif" font-weight="normal" fill="#64768D">
                                    <tspan x="22" y="13">Obligations from 9 Licenses</tspan>
                                </text>
                            </g>
                            
                        </g>
                    </g>
                
                <g id="Group-6" mask="url(#mask-2)">
                    <g transform="translate(0.000000, 210.000000)">
                        <rect id="Rectangle-143" fill-opacity="0.05" fill="#64768D" fill-rule="evenodd" x="0" y="1" width="275" height="37"></rect>
                        <rect id="Rectangle-144" fill-opacity="0.1" fill="#64768D" fill-rule="evenodd" x="0" y="0" width="275" height="1"></rect>
                        <text id="View-More-Details-on" fill="none" font-family="'Open Sauce Two', 'Open Sauce', 'Helvetica Neue', Helvetica, Arial, sans-serif" font-size="12" font-weight="bold" fill-opacity="0.6">
                            <tspan x="15" y="23" fill="#64768D">View More Details on FOSSA</tspan>
                        </text>
                        <g id="Page-1" stroke-width="1" fill="none" fill-rule="evenodd" transform="translate(246.000000, 12.000000)" fill-opacity="0.6">
                            <path d="M11.8417681,2.15823188 C10.5482899,0.864753623 8.82933333,0.152173913 7,0.152173913 C5.17066667,0.152173913 3.45171014,0.864753623 2.15823188,2.15823188 C0.864753623,3.45171014 0.152173913,5.17066667 0.152173913,7 C0.152173913,8.82933333 0.864753623,10.5491014 2.15823188,11.8417681 C3.45171014,13.1352464 5.17147826,13.8478261 7,13.8478261 C8.82933333,13.8478261 10.5491014,13.1352464 11.8417681,11.8417681 C13.1352464,10.5491014 13.8478261,8.82933333 13.8478261,7 C13.8478261,5.17066667 13.1352464,3.45171014 11.8417681,2.15823188 L11.8417681,2.15823188 Z M10.7662029,10.7662029 C9.76043478,11.7721739 8.42272464,12.326087 7,12.326087 C5.57727536,12.326087 4.24017391,11.7721739 3.2337971,10.7662029 C2.22782609,9.76043478 1.67391304,8.42272464 1.67391304,7 C1.67391304,5.57727536 2.22782609,4.24017391 3.2337971,3.2337971 C4.24017391,2.22782609 5.57727536,1.67391304 7,1.67391304 C8.42272464,1.67391304 9.75982609,2.22782609 10.7662029,3.2337971 C11.7721739,4.24017391 12.326087,5.57727536 12.326087,7 C12.326087,8.42272464 11.7721739,9.76043478 10.7662029,10.7662029 L10.7662029,10.7662029 Z" id="Fill-1" fill="#64768D"></path>
                            <polyline id="Fill-2" fill="#64768D" points="6.24623188 4.09368116 5.16985507 5.16985507 7 7 5.16985507 8.83014493 6.24623188 9.90550725 9.15255072 7"></polyline>
                        </g>
                    </g>
                </g>
            </g>
        </g>
    </g>
</svg>
